<svg width="1600" height="1000" viewBox="0 0 1600 1000" fill="none" xmlns="http://www.w3.org/2000/svg">
  <defs>
    <linearGradient id="sky" x1="800" y1="30" x2="800" y2="1000" gradientUnits="userSpaceOnUse">
      <stop stop-color="#17382E"/>
      <stop offset="0.46" stop-color="#173329"/>
      <stop offset="1" stop-color="#08110D"/>
    </linearGradient>
    <radialGradient id="mist" cx="0" cy="0" r="1" gradientUnits="userSpaceOnUse" gradientTransform="translate(825 366) rotate(90) scale(268 332)">
      <stop stop-color="#BEEEB9" stop-opacity="0.72"/>
      <stop offset="0.52" stop-color="#8BCCA0" stop-opacity="0.26"/>
      <stop offset="1" stop-color="#8BCCA0" stop-opacity="0"/>
    </radialGradient>
    <linearGradient id="ground" x1="800" y1="572" x2="800" y2="1000" gradientUnits="userSpaceOnUse">
      <stop stop-color="#183021"/>
      <stop offset="1" stop-color="#08110D"/>
    </linearGradient>
    <linearGradient id="trunk" x1="0" y1="0" x2="1" y2="1">
      <stop stop-color="#2F1A15"/>
      <stop offset="1" stop-color="#5A3728"/>
    </linearGradient>
    <filter id="blur" x="-120" y="-120" width="1840" height="1240" filterUnits="userSpaceOnUse" color-interpolation-filters="sRGB">
      <feGaussianBlur stdDeviation="36"/>
    </filter>
  </defs>

  <rect width="1600" height="1000" fill="url(#sky)"/>
  <ellipse cx="812" cy="374" rx="340" ry="244" fill="url(#mist)"/>

  <g opacity="0.28">
    <rect x="236" y="120" width="30" height="510" rx="15" fill="#284438"/>
    <rect x="338" y="40" width="26" height="610" rx="13" fill="#305042"/>
    <rect x="460" y="94" width="18" height="590" rx="9" fill="#274136"/>
    <rect x="590" y="18" width="28" height="650" rx="14" fill="#355548"/>
    <rect x="730" y="84" width="22" height="580" rx="11" fill="#2A4639"/>
    <rect x="884" y="30" width="26" height="628" rx="13" fill="#355548"/>
    <rect x="1016" y="92" width="19" height="578" rx="9.5" fill="#29463A"/>
    <rect x="1142" y="38" width="31" height="650" rx="15.5" fill="#335245"/>
    <rect x="1278" y="100" width="22" height="560" rx="11" fill="#2E4A3D"/>
  </g>

  <path d="M0 636C166 578 302 588 478 624C636 656 750 678 926 650C1088 624 1208 568 1600 596V1000H0V636Z" fill="url(#ground)"/>

  <g filter="url(#blur)" opacity="0.22">
    <path d="M674 690C734 654 798 644 906 654C1020 664 1110 626 1238 596L1376 1000H384L502 748C560 742 628 720 674 690Z" fill="#9EDC83"/>
  </g>

  <path d="M644 1000C652 940 664 884 696 838C728 790 776 752 828 720C874 690 930 668 966 634C1034 570 1040 462 1092 422C1128 394 1190 390 1236 412C1316 452 1348 562 1338 640C1324 754 1242 832 1198 904C1182 930 1172 960 1168 1000H644Z" fill="#101D13" opacity="0.5"/>
  <path d="M646 1000C660 930 678 884 716 840C750 802 804 774 858 734C918 690 954 638 976 602C1004 558 1024 494 1084 460C1116 442 1164 442 1194 462C1268 512 1250 642 1210 718C1172 792 1094 850 1058 916C1044 944 1032 972 1028 1000H646Z" fill="#0B160F" opacity="0.65"/>

  <path d="M0 1000V0H226C190 128 176 266 178 398C180 558 194 708 248 1000H0Z" fill="url(#trunk)"/>
  <path d="M1434 1000C1494 812 1512 642 1506 464C1500 292 1472 122 1408 0H1600V1000H1434Z" fill="url(#trunk)"/>

  <path d="M192 0C238 78 270 172 282 268C294 366 292 474 280 612C266 770 254 890 286 1000H408C388 894 386 788 398 674C412 542 442 432 438 294C434 182 400 84 338 0H192Z" fill="#1A130F"/>
  <path d="M1202 0C1146 102 1120 236 1128 376C1134 494 1164 598 1188 712C1212 816 1222 910 1202 1000H1362C1380 866 1384 744 1378 600C1370 402 1348 196 1282 0H1202Z" fill="#201711"/>

  <path d="M542 804C602 768 640 734 688 684C718 652 748 626 782 600C864 536 988 514 1112 544C1208 568 1292 626 1372 700V1000H290C338 904 414 884 542 804Z" fill="#132117"/>
  <path d="M526 1000C570 936 632 886 720 822C806 758 874 708 912 652C958 584 950 500 1012 460C1060 428 1128 436 1180 464C1272 514 1344 610 1402 702V1000H526Z" fill="#17281B"/>
  <path d="M614 1000C660 948 732 898 810 838C892 774 962 710 1002 632C1028 584 1042 520 1082 488C1116 460 1170 462 1208 486C1290 540 1352 640 1416 738V1000H614Z" fill="#203621"/>
  <path d="M552 1000C586 964 648 936 700 914C800 872 878 838 948 770C1004 716 1042 650 1078 576C1088 556 1122 558 1130 580C1150 642 1192 694 1234 752C1290 832 1344 912 1366 1000H552Z" fill="#28452C"/>
  <path d="M548 1000C626 958 722 924 816 890C944 844 1036 774 1094 668C1118 624 1128 612 1142 622C1166 640 1182 686 1220 746C1272 830 1336 920 1396 1000H548Z" fill="#365B35"/>
  <path d="M450 1000C496 942 570 892 664 850C748 814 812 784 860 736C920 678 962 604 1014 544C1024 532 1044 530 1056 540C1086 568 1114 620 1150 676C1214 778 1294 894 1386 1000H450Z" fill="#4F6B37"/>
  <path d="M528 1000C576 970 632 948 700 924C834 874 942 796 1022 660C1034 640 1062 640 1072 660C1126 772 1210 892 1304 1000H528Z" fill="#6D6A3A"/>
  <path d="M714 1000C746 970 786 948 830 930C908 896 964 844 1012 754C1018 742 1034 742 1042 752C1090 834 1154 926 1226 1000H714Z" fill="#7B633C"/>
  <path d="M772 1000C814 966 860 944 902 926C962 900 1004 860 1040 798C1046 788 1060 788 1066 796C1098 852 1140 928 1194 1000H772Z" fill="#5B422E"/>

  <g opacity="0.95">
    <path d="M214 258C154 250 106 208 74 144C118 154 172 168 218 198C256 222 286 258 310 302C272 284 244 264 214 258Z" fill="#203C25"/>
    <path d="M284 208C244 184 202 132 178 68C220 84 264 110 298 146C320 170 336 200 350 236C324 228 304 220 284 208Z" fill="#2A4A2D"/>
    <path d="M1364 180C1400 126 1454 84 1522 56C1496 118 1456 176 1402 218C1364 248 1320 266 1272 280C1302 238 1332 222 1364 180Z" fill="#234227"/>
    <path d="M1450 274C1502 252 1550 208 1584 148C1576 220 1546 280 1498 322C1454 362 1396 382 1330 390C1360 340 1404 294 1450 274Z" fill="#355B37"/>
  </g>

  <g opacity="0.75">
    <path d="M202 806C244 734 312 684 404 666C348 734 318 810 294 894L202 806Z" fill="#162918"/>
    <path d="M238 856C292 790 376 746 470 742C402 802 356 876 328 956L238 856Z" fill="#254026"/>
    <path d="M1288 836C1238 760 1164 708 1064 696C1138 756 1186 832 1216 918L1288 836Z" fill="#1E341E"/>
    <path d="M1344 884C1286 812 1202 760 1108 748C1172 812 1218 886 1246 964L1344 884Z" fill="#2C4A2D"/>
  </g>
</svg>
